<svg xmlns="http://www.w3.org/2000/svg" xmlns:xlink="http://www.w3.org/1999/xlink" viewBox="0 0 480.04 180"><defs><style>.cls-1{fill:#fff;}.cls-2{fill:url(#radial-gradient);}.cls-3{fill:url(#radial-gradient-2);}.cls-4,.cls-5{opacity:0.2;}.cls-4{fill:url(#radial-gradient-3);}.cls-5{fill:url(#radial-gradient-4);}.cls-6{fill:url(#radial-gradient-5);}.cls-7{fill:url(#radial-gradient-6);}.cls-8{opacity:0.9;fill:url(#radial-gradient-7);}.cls-9{fill:url(#radial-gradient-8);}.cls-10{fill:url(#linear-gradient);}.cls-11{fill:url(#radial-gradient-9);}</style><radialGradient id="radial-gradient" cx="94.87" cy="4.69" r="174.22" gradientTransform="translate(-0.07 1.25)" gradientUnits="userSpaceOnUse"><stop offset="0" stop-color="#ffd867"/><stop offset="0.19" stop-color="#f78a64"/><stop offset="0.4" stop-color="#ed3061"/><stop offset="0.71" stop-color="#a52f78"/><stop offset="1" stop-color="#382f79"/></radialGradient><radialGradient id="radial-gradient-2" cx="80.98" cy="95.41" fx="97.78519477956537" fy="88.22497282928137" r="84.2" gradientTransform="translate(-0.07 1.25)" gradientUnits="userSpaceOnUse"><stop offset="0.08" stop-color="#fff7a9"/><stop offset="0.22" stop-color="#fff352"/><stop offset="1" stop-color="#e11e67"/></radialGradient><radialGradient id="radial-gradient-3" cx="0.43" cy="127.41" r="0.5" gradientTransform="translate(-0.07 1.25)" gradientUnits="userSpaceOnUse"><stop offset="0" stop-color="#ffd867"/><stop offset="1" stop-color="#ed3061"/></radialGradient><radialGradient id="radial-gradient-4" cx="0.43" cy="123.41" r="0.5" xlink:href="#radial-gradient-3"/><radialGradient id="radial-gradient-5" cx="89.67" cy="45.13" fx="97.52005343455536" r="58.58" gradientUnits="userSpaceOnUse"><stop offset="0.14" stop-color="#fff7a9"/><stop offset="0.19" stop-color="#fff352"/><stop offset="0.66" stop-color="#ed3061"/></radialGradient><radialGradient id="radial-gradient-6" cx="109.33" cy="91.73" r="25.13" gradientUnits="userSpaceOnUse"><stop offset="0.02" stop-color="#fff7a9"/><stop offset="0.23" stop-color="#fff352"/><stop offset="1" stop-color="#ed3061"/></radialGradient><radialGradient id="radial-gradient-7" cx="59.34" cy="89.54" r="28.4" gradientUnits="userSpaceOnUse"><stop offset="0.18" stop-color="#fff7a9"/><stop offset="0.37" stop-color="#fff352"/><stop offset="0.42" stop-color="#feed52" stop-opacity="0.97"/><stop offset="0.5" stop-color="#fdde54" stop-opacity="0.89"/><stop offset="0.6" stop-color="#fbc556" stop-opacity="0.76"/><stop offset="0.71" stop-color="#f7a258" stop-opacity="0.58"/><stop offset="0.84" stop-color="#f3745c" stop-opacity="0.35"/><stop offset="0.97" stop-color="#ee3e60" stop-opacity="0.07"/><stop offset="1" stop-color="#ed3061" stop-opacity="0"/></radialGradient><radialGradient id="radial-gradient-8" cx="8.55" cy="57.22" r="75.54" gradientTransform="translate(-0.07 1.25)" gradientUnits="userSpaceOnUse"><stop offset="0" stop-color="#fff" stop-opacity="0"/><stop offset="0.45" stop-color="#fff" stop-opacity="0.2"/><stop offset="1" stop-color="#fff2cb" stop-opacity="0"/></radialGradient><linearGradient id="linear-gradient" x1="105.31" y1="78.25" x2="172.29" y2="76.16" gradientUnits="userSpaceOnUse"><stop offset="0" stop-color="#fff" stop-opacity="0"/><stop offset="0.21" stop-color="#fff" stop-opacity="0.2"/><stop offset="0.44" stop-color="#fff" stop-opacity="0.01"/><stop offset="0.76" stop-color="#fff" stop-opacity="0.04"/><stop offset="1" stop-color="#fff2cb" stop-opacity="0"/></linearGradient><radialGradient id="radial-gradient-9" cx="94.84" cy="2.09" r="116.45" gradientTransform="translate(-0.07 1.25)" gradientUnits="userSpaceOnUse"><stop offset="0" stop-color="#fff" stop-opacity="0.1"/><stop offset="0.42" stop-color="#ffd867" stop-opacity="0.2"/><stop offset="1" stop-color="#fff2cb" stop-opacity="0.15"/></radialGradient></defs><g id="Layer_2" data-name="Layer 2"><g id="Layer_1-2" data-name="Layer 1"><path class="cls-1" d="M227.61,112.77H264.9V120H219.47V60h8.14Z"/><path class="cls-1" d="M377.32,109.49h.23l26-49.49h8.7l-30.62,60H373L342.52,60h8.82Z"/><path class="cls-1" d="M445.24,70.51H445L419,120h-8.7l30.62-60h8.59L480,120h-8.82Z"/><path class="cls-1" d="M309.64,70.51h-.23l-26,49.49h-8.7l30.62-60h8.58l30.51,60h-8.81Z"/><path class="cls-2" d="M0,128.16c0,3.29,2.17,6.59,6.54,9.09l67.92,39c.52.3,1.06.58,1.62.85l.57.24,1,.44.18.06.39.14c.44.16.89.32,1.34.46l.47.14.31.1.57.14c.46.12.91.23,1.38.33.12,0,.24.07.37.09l.55.1,1.17.2.47.08c.17,0,.35,0,.52.06.37.05.73.09,1.1.12l.53.06.5,0,1.12.06.56,0h2.27l.36,0,1.49-.1.61,0,.18,0c.85-.09,1.69-.2,2.51-.35l.13,0c.24,0,.47-.1.71-.15.41-.08.82-.16,1.22-.26l.87-.23,1.14-.32.25-.07c.45-.15.9-.31,1.34-.48l.19-.07c.49-.19,1-.39,1.42-.6l.4-.19c.52-.25,1-.51,1.5-.79l67.48-39,.27-.16c.2-.12.37-.26.57-.38s.55-.35.8-.53.41-.32.62-.49l.68-.56.13-.11c.29-.26.55-.53.8-.8l.15-.17.43-.5.29-.4.11-.15a9.06,9.06,0,0,0,.49-.77c0-.05,0-.11.08-.16.12-.23.22-.46.32-.69s.14-.26.19-.4,0-.09,0-.14c.08-.21.13-.43.19-.65s.1-.3.13-.45a.49.49,0,0,1,0-.12c0-.23.06-.46.08-.69s.05-.3.05-.45v-.2l.32-76.6c0,.21-.07.56-.09.77.3-3.49-1.85-7-6.49-9.7l-67.92-39c-8.67-5-22.69-5-31.31,0l-67.48,39c-4.3,2.48-6.44,5.73-6.43,9v0m0,.69c0,.19,0,.38,0,.57C.35,52.78.35,52.59.33,52.4Z"/><path class="cls-3" d="M74.46,176.27c.52.3,1.06.58,1.62.85l.57.24,1,.44.18.06.39.14c.44.16.89.32,1.34.46l.47.14.31.1.57.14c.46.12.91.23,1.38.33.12,0,.24.07.37.09l.55.1,1.17.2.47.08c.17,0,.35,0,.52.06.37.05.73.09,1.1.12l.53.06.5,0,1.12.06.56,0h2.27l.36,0,1.49-.1.61,0,.18,0c.85-.09,1.69-.2,2.51-.35l.13,0c.24,0,.47-.1.71-.15.41-.08.82-.16,1.22-.26l.87-.23,1.14-.32.25-.07c.45-.15.9-.31,1.34-.48l.19-.07c.49-.19,1-.39,1.42-.6l.4-.19c.52-.25,1-.51,1.5-.79L167,140.88c-9.64-2.31-17.93-7.86-22.71-15.59-12.86-20.75-32.35-29.8-54.18-29.8-22.06,0-41.74,8.84-54.59,29.75-4.76,7.75-13,13.3-22.69,15.62Z"/><path class="cls-4" d="M.33,128c0,.2,0,.39,0,.58C.35,128.42.35,128.23.33,128Z"/><path class="cls-5" d="M.33,124.05c0,.2,0,.39,0,.58C.35,124.44.35,124.25.33,124.05Z"/><path class="cls-6" d="M79.85,108.77c2.58-4.48,3-13.34,2.54-20.13a9.46,9.46,0,0,1,5.29-9.16c6.12-3,13.57-7.79,16.16-12.27a16,16,0,1,0-27.7-16c-2.59,4.48-3,13.33-2.55,20.13A9.42,9.42,0,0,1,68.3,80.5c-6.12,3-13.57,7.79-16.15,12.27a16,16,0,1,0,27.7,16Z"/><circle class="cls-7" cx="114" cy="100.78" r="15.99"/><path class="cls-8" d="M79.85,108.77c2.58-4.48,3-13.34,2.54-20.13a9.46,9.46,0,0,1,5.29-9.16c6.12-3,13.57-7.79,16.16-12.27a16,16,0,1,0-27.7-16c-2.59,4.48-3,13.33-2.55,20.13A9.42,9.42,0,0,1,68.3,80.5c-6.12,3-13.57,7.79-16.15,12.27a16,16,0,1,0,27.7,16Z"/><polygon class="cls-9" points="75.98 98.54 5.19 57.88 6.37 55.85 77.15 96.51 75.98 98.54"/><polygon class="cls-10" points="104.19 98.54 174.98 57.88 173.8 55.85 103.01 96.51 104.19 98.54"/><path class="cls-11" d="M6.54,58.63l67.92,39q.78.45,1.62.84l.57.25,1,.44.18.06.39.14,1.34.46L80,100l.31.1.57.14c.46.12.91.23,1.38.33.12,0,.24.07.37.09l.55.1,1.17.2.47.08c.17,0,.35,0,.52.06.37,0,.73.09,1.1.12l.53.06.5,0,1.12.06.56,0h2.27l.36,0c.5,0,1,0,1.49-.1l.61,0,.18,0c.85-.09,1.69-.2,2.51-.35l.13,0c.24,0,.47-.1.71-.15.41-.08.82-.16,1.22-.26l.87-.23,1.14-.32.25-.07c.45-.15.9-.31,1.34-.48l.19-.07c.49-.19,1-.39,1.42-.61l.4-.19q.78-.36,1.5-.78l67.48-39,.27-.16c.2-.13.37-.26.57-.38s.55-.35.8-.53.41-.33.62-.49l.68-.56.13-.11c.29-.26.55-.53.8-.8l.15-.17.43-.5.29-.4.11-.15a9.06,9.06,0,0,0,.49-.77s0-.11.08-.16c.12-.23.22-.46.32-.69s.14-.26.19-.4,0-.09,0-.14c.08-.21.13-.43.19-.65s.1-.3.13-.45a.49.49,0,0,1,0-.12c0-.23.06-.46.08-.69s.05-.3.05-.45c-.69-2.6-2.77-5.11-6.26-7.11l-67.92-39c-8.67-5-22.69-5-31.31,0l-67.48,39C2.49,45.19.37,48.37.3,51.56,1,54.15,3.07,56.64,6.54,58.63Z"/></g></g></svg>