<svg xmlns="http://www.w3.org/2000/svg" xmlns:xlink="http://www.w3.org/1999/xlink" viewBox="0 0 1028 1028"><defs><style>.cls-1{fill:url(#radial-gradient);}.cls-2{fill:url(#radial-gradient-2);}.cls-3{fill:url(#radial-gradient-3);}.cls-4,.cls-5{opacity:0.2;}.cls-4{fill:url(#radial-gradient-4);}.cls-5{fill:url(#radial-gradient-5);}.cls-6{fill:url(#radial-gradient-6);}.cls-7{fill:url(#radial-gradient-7);}.cls-8{opacity:0.9;fill:url(#radial-gradient-8);}.cls-9{fill:url(#radial-gradient-9);}.cls-10{fill:url(#linear-gradient);}.cls-11{fill:url(#radial-gradient-10);}</style><radialGradient id="radial-gradient" cx="522.26" cy="18.15" r="1012.4" gradientTransform="translate(0 0.21)" gradientUnits="userSpaceOnUse"><stop offset="0" stop-color="#ffd867"/><stop offset="0.19" stop-color="#f78a64"/><stop offset="0.4" stop-color="#ed3061"/><stop offset="0.71" stop-color="#a52f78"/><stop offset="1" stop-color="#382f79"/></radialGradient><radialGradient id="radial-gradient-2" cx="462.94" cy="551.34" fx="558.0965463247271" fy="510.6241261468265" r="476.79" gradientTransform="translate(0 0.01)" gradientUnits="userSpaceOnUse"><stop offset="0.08" stop-color="#fff7a9"/><stop offset="0.22" stop-color="#fff352"/><stop offset="1" stop-color="#e11e67"/></radialGradient><radialGradient id="radial-gradient-3" cx="4.17" cy="299.51" r="2.85" gradientTransform="translate(-0.13 2.14)" xlink:href="#radial-gradient"/><radialGradient id="radial-gradient-4" cx="4.17" cy="731.86" r="2.85" gradientTransform="translate(-0.13 2.14)" gradientUnits="userSpaceOnUse"><stop offset="0" stop-color="#ffd867"/><stop offset="1" stop-color="#ed3061"/></radialGradient><radialGradient id="radial-gradient-5" cx="4.17" cy="709.1" r="2.85" xlink:href="#radial-gradient-4"/><radialGradient id="radial-gradient-6" cx="512.15" cy="258.75" fx="556.7807088738163" fy="276.357235607295" r="333.28" gradientTransform="translate(0 0.01)" gradientUnits="userSpaceOnUse"><stop offset="0.14" stop-color="#fff7a9"/><stop offset="0.19" stop-color="#fff352"/><stop offset="0.66" stop-color="#ed3061"/></radialGradient><radialGradient id="radial-gradient-7" cx="623.96" cy="523.82" fy="534.2022857752889" r="142.95" gradientTransform="translate(0.45 -0.33)" gradientUnits="userSpaceOnUse"><stop offset="0.02" stop-color="#fff7a9"/><stop offset="0.23" stop-color="#fff352"/><stop offset="1" stop-color="#ed3061"/></radialGradient><radialGradient id="radial-gradient-8" cx="339.61" cy="511.4" r="161.55" gradientTransform="translate(0 0.01)" gradientUnits="userSpaceOnUse"><stop offset="0.18" stop-color="#fff7a9"/><stop offset="0.37" stop-color="#fff352"/><stop offset="0.42" stop-color="#feed52" stop-opacity="0.97"/><stop offset="0.5" stop-color="#fdde54" stop-opacity="0.89"/><stop offset="0.6" stop-color="#fbc556" stop-opacity="0.76"/><stop offset="0.71" stop-color="#f7a258" stop-opacity="0.58"/><stop offset="0.84" stop-color="#f3745c" stop-opacity="0.35"/><stop offset="0.97" stop-color="#ee3e60" stop-opacity="0.07"/><stop offset="1" stop-color="#ed3061" stop-opacity="0"/></radialGradient><radialGradient id="radial-gradient-9" cx="50.34" cy="362.73" r="429.76" gradientTransform="translate(-0.13 2.14)" gradientUnits="userSpaceOnUse"><stop offset="0" stop-color="#fff" stop-opacity="0"/><stop offset="0.45" stop-color="#fff" stop-opacity="0.2"/><stop offset="1" stop-color="#fff2cb" stop-opacity="0"/></radialGradient><linearGradient id="linear-gradient" x1="601.11" y1="477.15" x2="982.17" y2="465.24" gradientUnits="userSpaceOnUse"><stop offset="0" stop-color="#fff" stop-opacity="0"/><stop offset="0.21" stop-color="#fff" stop-opacity="0.2"/><stop offset="0.44" stop-color="#fff" stop-opacity="0.01"/><stop offset="0.76" stop-color="#fff" stop-opacity="0.04"/><stop offset="1" stop-color="#fff2cb" stop-opacity="0"/></linearGradient><radialGradient id="radial-gradient-10" cx="514" cy="305" r="422.48" gradientTransform="translate(-0.25 0.02)" gradientUnits="userSpaceOnUse"><stop offset="0" stop-color="#fff" stop-opacity="0.1"/><stop offset="0.42" stop-color="#ffd867" stop-opacity="0.2"/><stop offset="1" stop-color="#fff2cb" stop-opacity="0.15"/></radialGradient></defs><g id="Layer_2" data-name="Layer 2"><g id="Layer_1-2" data-name="Layer 1"><path class="cls-1" d="M0,310.94V717.06A74.63,74.63,0,0,0,37.33,781.7l383.58,221.36a186.22,186.22,0,0,0,186.18,0L990.67,781.7A74.63,74.63,0,0,0,1028,717.06V310.94a74.63,74.63,0,0,0-37.33-64.64L607.09,24.94a186.22,186.22,0,0,0-186.18,0L37.33,246.3A74.63,74.63,0,0,0,0,310.94Z"/><path class="cls-2" d="M515.06,1028a186,186,0,0,0,92-24.92L950.3,805c-54.1-13.38-100.57-44.7-127.53-88.22-73.16-118-184-169.57-308.19-169.57-125.51,0-237.46,50.31-310.58,169.26-26.7,43.44-72.88,74.76-126.7,88.29l343.6,198.3a186.09,186.09,0,0,0,80.32,24.49c1.64.1,3.28.2,4.93.26h.07c2.06.08,4.12.14,6.18.15C513.29,1028,514.17,1028,515.06,1028Z"/><path class="cls-3" d="M3.89,300.1c.1,1.09.11,2.18.29,3.26C4,302.28,4,301.19,3.89,300.1Z"/><path class="cls-4" d="M3.89,730.37c.1,1.09.11,2.18.29,3.27C4,732.55,4,731.46,3.89,730.37Z"/><path class="cls-5" d="M3.89,707.72c.1,1.09.11,2.18.29,3.27C4,709.9,4,708.81,3.89,707.72Z"/><path class="cls-6" d="M456.24,620.76c14.71-25.48,17.17-75.85,14.49-114.51a53.66,53.66,0,0,1,30.07-52.08c34.82-17,77.21-44.33,91.92-69.8a91,91,0,0,0-157.59-91c-14.71,25.47-17.17,75.85-14.49,114.51A53.67,53.67,0,0,1,390.57,460c-34.82,17-77.21,44.33-91.92,69.8a91,91,0,1,0,157.59,91Z"/><circle class="cls-7" cx="651" cy="575" r="90.98"/><path class="cls-8" d="M456.24,620.76c14.71-25.48,17.17-75.85,14.49-114.51a53.66,53.66,0,0,1,30.07-52.08c34.82-17,77.21-44.33,91.92-69.8a91,91,0,0,0-157.59-91c-14.71,25.47-17.17,75.85-14.49,114.51A53.67,53.67,0,0,1,390.57,460c-34.82,17-77.21,44.33-91.92,69.8a91,91,0,1,0,157.59,91Z"/><polygon class="cls-9" points="434.22 592.59 31.53 361.26 38.23 349.73 440.92 581.06 434.22 592.59"/><polygon class="cls-10" points="594.73 592.59 997.42 361.26 990.73 349.73 588.03 581.06 594.73 592.59"/><path class="cls-11" d="M607.14,25a186.4,186.4,0,0,0-186.28,0L37.1,246.3A74.65,74.65,0,0,0,0,305a74.61,74.61,0,0,0,37.1,58.7L420.86,585.06a186.4,186.4,0,0,0,186.28,0L990.9,363.7A74.61,74.61,0,0,0,1028,305a74.65,74.65,0,0,0-37.1-58.7Z"/></g></g></svg>